# xmcd
#
# Track frame offsets: 
#        150
#        15634
#        35234
#        50321
#        64454
#        80997
#        92160
#        106338
#        123585
#        136725
#
# Disc length: 1966 seconds
#
# Revision: 0
# Processed by: cddbd v1.4PL0 Copyright (c) Steve Scherf et al.
# Submitted via: ExactAudioCopy v0.90b4
#
DISCID=8d07ac0a
DTITLE=Shenandoah - Certified Hits
DYEAR=2002
DGENRE=Country
TTITLE0=Next To You, Next To Me
TTITLE1=Sunday In The South
TTITLE2=Two Dozen Roses
TTITLE3=Church On Cumberland Road
TTITLE4=Ghost In This House
TTITLE5=Darned If I Don't (Danged If I Do)
TTITLE6=Heaven Bound (I'm Ready)
TTITLE7=Always Have, Always Will
TTITLE8=All Over But The Shoutin'
TTITLE9=Can't Buy Me Love
EXTD=
EXTT0=
EXTT1=
EXTT2=
EXTT3=
EXTT4=
EXTT5=
EXTT6=
EXTT7=
EXTT8=
EXTT9=
PLAYORDER=
